Coordinates
nRows=9
nColumns=38

# SIMM Motion File Header:
name Coordinates
datacolumns 38
datarows 9
otherdata 1
range 1.95000000000000000000 1.95800000000000000000

Units are S.I. units (second, meters, Newtons, ...)
Angles are in degrees.

endheader
time	pelvis_tilt	pelvis_list	pelvis_rotation	pelvis_tx	pelvis_ty	pelvis_tz	hip_flexion_r	hip_adduction_r	hip_rotation_r	knee_angle_r	ankle_angle_r	subtalar_angle_r	mtp_angle_r	hip_flexion_l	hip_adduction_l	hip_rotation_l	knee_angle_l	ankle_angle_l	subtalar_angle_l	mtp_angle_l	lumbar_extension	lumbar_bending	lumbar_rotation	arm_flex_r	arm_add_r	arm_rot_r	elbow_flex_r	pro_sup_r	wrist_flex_r	wrist_dev_r	arm_flex_l	arm_add_l	arm_rot_l	elbow_flex_l	pro_sup_l	wrist_flex_l	wrist_dev_l
      1.95000000000000000000	      1.47094450884291470000	     -3.28224170140295040000	      0.78509212510341009000	      0.80357748874502266000	      0.97941104375351651000	     -0.32646214561236414000	     -1.76217283863625180000	      9.28768372820914580000	      3.08599469458608320000	    -30.15248584962385800000	     24.32162640387127400000	      0.00000000000001510121	      0.00000000000003320280	     27.45260070944091500000	      0.67237777631713680000	      2.73792744140148870000	    -86.60483781693945100000	     -5.09247414420876780000	     -0.00000000000000622287	      0.00000000000000477384	    -15.47184192867305400000	      2.41009301231918820000	      4.78134212482890940000	    -14.34748402332730100000	    -26.62001652366103200000	    -13.70900999012413400000	     93.34278542148013000000	     68.76592938442965400000	      0.00000000000000179306	      0.00000000000000369395	    -18.80484623799741300000	    -15.88218144326464000000	     -5.19399538053717700000	     80.75284344904747500000	    104.90754509319875000000	      0.00000000000000558978	      0.00000000000000295321
      1.95099999999999980000	      1.45354422885501980000	     -3.16295508723009400000	      0.75505290884153931000	      0.80368144976258493000	      0.97984177744481804000	     -0.32633712511365043000	     -2.08993559295695070000	      9.15326187280517800000	      3.14972217237018670000	    -29.87570587351758200000	     24.16054583313422200000	      0.00000000000001531325	      0.00000000000003359412	     27.59032930476524100000	      0.78842648424928552000	      2.67186626332164500000	    -86.29568219696656700000	     -4.99805618905064360000	     -0.00000000000000623062	      0.00000000000000478457	    -15.42787048636483500000	      2.25115891713609220000	      4.83513306659485130000	    -14.31761385998689900000	    -26.63520938007159000000	    -13.69589696133123400000	     93.43167512954838100000	     68.75878369366483900000	      0.00000000000000180015	      0.00000000000000371336	    -19.07982927290699800000	    -15.91376701001590300000	     -5.32313986724250740000	     80.92419480869233400000	    104.77168934606269000000	      0.00000000000000577938	      0.00000000000000297256
      1.95200000000000000000	      1.43490967851797760000	     -3.04315671805772190000	      0.72491932410786353000	      0.80378905522266664000	      0.98027659306007708000	     -0.32621191096462077000	     -2.41651094479924970000	      9.01730239346230180000	      3.21098031195011920000	    -29.59690647795522300000	     23.99154309624025300000	      0.00000000000001550069	      0.00000000000003401078	     27.72679693941815400000	      0.90413000091549056000	      2.60559453102870450000	    -85.98092019646927000000	     -4.89928178300623610000	     -0.00000000000000623843	      0.00000000000000480142	    -15.38221468509885700000	      2.09141181951476970000	      4.88760526106324540000	    -14.28864037550316200000	    -26.64933122896562900000	    -13.68268343747501000000	     93.52086560771437000000	     68.75335205593745500000	      0.00000000000000180681	      0.00000000000000372853	    -19.35560032350037600000	    -15.94675282493505500000	     -5.44965527098728050000	     81.09816214162062000000	    104.63655637708801000000	      0.00000000000000595896	      0.00000000000000299321
      1.95299999999999980000	      1.41507734882916520000	     -2.92287611627334960000	      0.69479203013528956000	      0.80390014869557880000	      0.98071540009367264000	     -0.32608677293178162000	     -2.74180151944445690000	      8.87982285549016840000	      3.26958230305159380000	    -29.31629545386058300000	     23.81457525739093800000	      0.00000000000001567118	      0.00000000000003443759	     27.86196962620458400000	      1.01956522693512010000	      2.53926494417932820000	    -85.66056426144352500000	     -4.79631700191542710000	     -0.00000000000000625347	      0.00000000000000482855	    -15.33493918444972300000	      1.93093360602885330000	      4.93872393386540500000	    -14.26058199594031200000	    -26.66240982102230500000	    -13.66939934704534200000	     93.61033745982679500000	     68.74957808592996900000	      0.00000000000000181298	      0.00000000000000375364	    -19.63201451963226100000	    -15.98104812183635600000	     -5.57354014095687770000	     81.27451212152202200000	    104.50238810301086000000	      0.00000000000000614765	      0.00000000000000301448
      1.95400000000000000000	      1.39408711574983600000	     -2.80214069570043470000	      0.66476816817527817000	      0.80401457931236198000	      0.98115811515597828000	     -0.32596197859312304000	     -3.06571533738665190000	      8.74084242004636100000	      3.32534939917728560000	    -29.03408048774209900000	     23.62960206201083200000	      0.00000000000001582768	      0.00000000000003485563	     27.99580568805323800000	      1.13481279933817110000	      2.47302653265398580000	    -85.33462137225552600000	     -4.68935836852441050000	     -0.00000000000000626324	      0.00000000000000485643	    -15.28611229623246700000	      1.76980299683802600000	      4.98845841859989920000	    -14.23345729779937100000	    -26.67447370084537500000	    -13.65607287320772800000	     93.70007127124540600000	     68.74739656295608400000	      0.00000000000000181907	      0.00000000000000377431	    -19.90893084573380600000	    -16.01656062133597300000	     -5.69480195873060510000	     81.45301921384752600000	    104.36941280831311000000	      0.00000000000000633904	      0.00000000000000303672
      1.95499999999999980000	      1.37198191589684690000	     -2.68097608607494700000	      0.63494102415313503000	      0.80413220206561409000	      0.98160466135957025000	     -0.32583779217023062000	     -3.38816572733485440000	      8.60038214782166930000	      3.37811135766357750000	    -28.75046867939660100000	     23.43658622233700600000	      0.00000000000001601560	      0.00000000000003523990	     28.12825621401515300000	      1.24995613634552470000	      2.40702434949874360000	    -85.00309341735743400000	     -4.57863064343009540000	     -0.00000000000000627718	      0.00000000000000486994	    -15.23580553253174900000	      1.60809572820277950000	      5.03678230799709330000	    -14.20728488331203600000	    -26.68555205685090900000	    -13.64273046291772000000	     93.79004750613140100000	     68.74673457187007800000	      0.00000000000000182496	      0.00000000000000380954	    -20.18621235700122400000	    -16.05319669463763400000	     -5.81345687086287730000	     81.63346572586392800000	    104.23784432882378000000	      0.00000000000000652836	      0.00000000000000306187
      1.95600000000000000000	      1.34880742906848660000	     -2.55940643154959520000	      0.60539968222046914000	      0.80425287809835622000	      0.98205496770498735000	     -0.32571447329878295000	     -3.70907124151611980000	      8.45846526978685280000	      3.42770689171643020000	    -28.46566607577125300000	     23.23549373852786100000	      0.00000000000001620931	      0.00000000000003561717	     28.25926550152861300000	      1.36508050973897690000	      2.34139914078769080000	    -84.66597755205452800000	     -4.46438461907134340000	     -0.00000000000000629693	      0.00000000000000489857	    -15.18409316024209200000	      1.44588469776303460000	      5.08367360834250890000	    -14.18208325281436400000	    -26.69567456157986700000	    -13.62939683634864200000	     93.88024640489899800000	     68.74751264862311500000	      0.00000000000000183047	      0.00000000000000385531	    -20.46372639464219000000	    -16.09086153257377600000	     -5.92952941895536510000	     81.81564185423927400000	    104.10788123281145000000	      0.00000000000000671859	      0.00000000000000308613
      1.95699999999999990000	      1.32461219284467810000	     -2.43745249297126780000	      0.57622808075094822000	      0.80437647530709344000	      0.98250896946264554000	     -0.32559227505949401000	     -4.02835600261844200000	      8.31511498348764630000	      3.47398432026232970000	    -28.17987761759410900000	     23.02629532498688300000	      0.00000000000001639374	      0.00000000000003599900	     28.38877054475589300000	      1.48027419072978120000	      2.27628565517435000000	    -84.32326559978921000000	     -4.34689519821624340000	     -0.00000000000000632558	      0.00000000000000492573	    -15.13105225004769800000	      1.28323751624714650000	      5.12911494881119090000	    -14.15787051467540200000	    -26.70487063726624700000	    -13.61609497636198200000	     93.97064769868413200000	     68.74964622820458300000	      0.00000000000000183565	      0.00000000000000390199	    -20.74134477899890800000	    -16.12945983627428600000	     -6.04305226723532220000	     81.99934591155297900000	    103.97970576499429000000	      0.00000000000000690158	      0.00000000000000311238
      1.95800000000000000000	      1.29944786581665440000	     -2.31512902327079170000	      0.54750388134860195000	      0.80450286907261781000	      0.98296660887889697000	     -0.32547144174191295000	     -4.34595018977692500000	      8.17035141246573280000	      3.51680220251397560000	    -27.89330719259931600000	     22.80896822112048700000	      0.00000000000001654760	      0.00000000000003636971	     28.51670021636489600000	      1.59563026838860300000	      2.21181050936006680000	    -83.97494312027359300000	     -4.22645958754030460000	     -0.00000000000000633544	      0.00000000000000495624	    -15.07676288375193600000	      1.12021319914065230000	      5.17309380476296180000	    -14.13466404506036200000	    -26.71316853010059200000	    -13.60284611046307500000	     94.06123027137648800000	     68.75304719059646200000	      0.00000000000000184054	      0.00000000000000394481	    -21.01894400711742300000	    -16.16889668068549900000	     -6.15406594085665310000	     82.18438461763379600000	    103.85348271043027000000	      0.00000000000000707896	      0.00000000000000314035
